<?xml version="1.0" encoding="UTF-8"?>
<svg version="1.1" xmlns="http://www.w3.org/2000/svg" width="128" height="128">
<path d="M0 0 C3.16879767 1.53796957 5.40372303 3.90893011 7.8203125 6.41015625 C8.34923096 6.94962891 8.87814941 7.48910156 9.4230957 8.04492188 C14.32795662 13.11354986 18.80995654 18.46260194 23.1328125 24.03515625 C23.88304688 24.98003906 24.63328125 25.92492187 25.40625 26.8984375 C36.3346274 40.97851418 44.7029805 54.62929804 43.1328125 73.03515625 C41.27581938 85.35321063 35.95078685 96.18077677 26.1328125 104.03515625 C21.6730821 106.95859156 17.07848918 109.07486429 12.1328125 111.03515625 C13.19810181 111.11032471 13.19810181 111.11032471 14.28491211 111.18701172 C17.54724961 111.42115458 20.80874095 111.66558401 24.0703125 111.91015625 C25.18728516 111.98878906 26.30425781 112.06742187 27.45507812 112.1484375 C33.84628097 112.63574329 39.96857808 113.22698082 46.1328125 115.03515625 C47.1228125 116.52015625 47.1228125 116.52015625 48.1328125 118.03515625 C42.713062 120.67457475 37.99126264 121.69913374 32.0078125 122.20703125 C31.13890381 122.28661072 30.26999512 122.36619019 29.37475586 122.44818115 C20.51274865 123.19542376 11.6675718 123.33858786 2.77832031 123.29589844 C0.13323065 123.28515795 -2.51118029 123.29589116 -5.15625 123.30859375 C-14.05361265 123.31722558 -22.87962403 123.01871387 -31.7421875 122.20703125 C-32.55631104 122.13792542 -33.37043457 122.06881958 -34.20922852 121.99761963 C-39.2957851 121.47369102 -43.2661313 120.27587062 -47.8671875 118.03515625 C-45.8671875 115.03515625 -45.8671875 115.03515625 -42.02734375 113.91796875 C-36.16643401 112.78359912 -30.25112783 112.34744722 -24.3046875 111.91015625 C-23.20060547 111.82378906 -22.09652344 111.73742187 -20.95898438 111.6484375 C-18.26210483 111.43829104 -15.56492036 111.23399377 -12.8671875 111.03515625 C-13.53468018 110.78266113 -14.20217285 110.53016602 -14.88989258 110.27001953 C-26.76984928 105.66930506 -34.57747765 99.0057349 -40.15234375 87.34765625 C-44.70470605 76.38282664 -46.34279959 62.97122262 -41.8046875 51.72265625 C-40.86821831 49.80537253 -39.888399 47.90867659 -38.8671875 46.03515625 C-38.12275391 44.59462891 -38.12275391 44.59462891 -37.36328125 43.125 C-30.17987583 29.98715732 -20.12252338 18.8343357 -9.8671875 8.03515625 C-8.71476562 6.76865234 -8.71476562 6.76865234 -7.5390625 5.4765625 C-6.84296875 4.73277344 -6.146875 3.98898438 -5.4296875 3.22265625 C-4.83285156 2.57683594 -4.23601563 1.93101562 -3.62109375 1.265625 C-1.8671875 0.03515625 -1.8671875 0.03515625 0 0 Z " fill="#C20C20" transform="translate(63.8671875,2.96484375)"/>
<path d="M0 0 C2.95104985 1.02645212 4.02673667 1.55552269 5.875 4 C6.16796875 6.48046875 6.16796875 6.48046875 6.0625 9.1875 C6.03542969 10.08855469 6.00835937 10.98960938 5.98046875 11.91796875 C5.94566406 12.60503906 5.91085938 13.29210938 5.875 14 C6.76251953 13.93039063 6.76251953 13.93039063 7.66796875 13.859375 C11.71574034 13.67448494 14.26905681 13.69084531 17.9375 15.5625 C19.875 18 19.875 18 20.375 21.5625 C19.875 25 19.875 25 18.69921875 26.703125 C16.13906946 28.52318831 14.29130884 28.29704619 11.1875 28.1875 C9.69669922 28.14689453 9.69669922 28.14689453 8.17578125 28.10546875 C7.41652344 28.07066406 6.65726563 28.03585938 5.875 28 C5.92720703 29.13888672 5.92720703 29.13888672 5.98046875 30.30078125 C6.00753906 31.29464844 6.03460938 32.28851563 6.0625 33.3125 C6.11470703 34.79169922 6.11470703 34.79169922 6.16796875 36.30078125 C5.875 39 5.875 39 4.578125 40.828125 C1.68567669 42.81834173 -0.7401297 42.41568583 -4.125 42 C-6.5625 40.625 -6.5625 40.625 -8.125 38 C-8.44631194 34.63939316 -8.35614045 31.36437766 -8.125 28 C-9.15560547 28.05220703 -9.15560547 28.05220703 -10.20703125 28.10546875 C-11.10808594 28.13253906 -12.00914063 28.15960938 -12.9375 28.1875 C-14.27748047 28.23970703 -14.27748047 28.23970703 -15.64453125 28.29296875 C-18.125 28 -18.125 28 -19.921875 26.73828125 C-22.03665827 23.68283139 -21.7627042 20.55927928 -21.125 17 C-19.6875 15 -19.6875 15 -17.125 14 C-14.10654755 13.77660335 -11.14485562 13.82577756 -8.125 14 C-8.18300781 13.40832031 -8.24101563 12.81664062 -8.30078125 12.20703125 C-8.55347247 7.78132506 -8.56183564 5.64240535 -6 1.875 C-3.125 0 -3.125 0 0 0 Z " fill="#ECE9E9" transform="translate(64.125,45)"/>
<path d="M0 0 C1.79200333 -0.0049926 1.79200333 -0.0049926 3.62020874 -0.01008606 C6.13986834 -0.01512936 8.65953457 -0.01749519 11.17919922 -0.01733398 C14.99067486 -0.01951252 18.80185699 -0.03767464 22.61328125 -0.05664062 C55.50549388 -0.13666313 55.50549388 -0.13666313 63.3984375 5.16796875 C60.89745212 8.24999114 58.82803502 8.72805411 54.9609375 9.29296875 C53.53974609 9.51339844 53.53974609 9.51339844 52.08984375 9.73828125 C40.92088838 11.03837129 29.88112479 11.35427128 18.64746094 11.35327148 C15.93147726 11.35544234 13.21591142 11.37361501 10.5 11.39257812 C1.4602169 11.42298787 -7.5028567 11.17218795 -16.5078125 10.34375 C-17.31996216 10.27439743 -18.13211182 10.20504486 -18.96887207 10.1335907 C-24.04397356 9.60702266 -28.00995823 8.40220791 -32.6015625 6.16796875 C-30.6015625 3.16796875 -30.6015625 3.16796875 -28.75390625 2.47265625 C-27.65755859 2.25996094 -27.65755859 2.25996094 -26.5390625 2.04296875 C-25.82621094 1.89601563 -25.11335938 1.7490625 -24.37890625 1.59765625 C-16.21082507 0.33395874 -8.25458734 0.00811888 0 0 Z " fill="#F9F9F9" transform="translate(48.6015625,114.83203125)"/>
<path d="M0 0 C1.09149101 -0.00143509 1.09149101 -0.00143509 2.20503235 -0.00289917 C3.74402961 -0.00357856 5.28302976 -0.00174107 6.82202148 0.00244141 C9.1502954 0.00775434 11.47837299 0.00250839 13.80664062 -0.00390625 C21.09393935 -0.00684148 28.26010536 0.09195517 35.48828125 1.1328125 C35.48828125 1.7928125 35.48828125 2.4528125 35.48828125 3.1328125 C30.49843089 5.12065913 26.26242573 5.42645459 20.984375 5.3984375 C19.78301659 5.40130768 19.78301659 5.40130768 18.55738831 5.40423584 C16.87232141 5.40559092 15.18724383 5.40194202 13.50219727 5.39355469 C10.93026214 5.38283118 8.35902318 5.39348007 5.78710938 5.40625 C4.14452972 5.40492856 2.50195049 5.40236649 0.859375 5.3984375 C0.09467392 5.40248596 -0.67002716 5.40653442 -1.457901 5.41070557 C-5.58107621 5.37465431 -8.80223233 4.97816402 -12.51171875 3.1328125 C-11.51171875 1.1328125 -11.51171875 1.1328125 -9.91870117 0.51611328 C-6.61158049 -0.01053034 -3.3391828 -0.00972796 0 0 Z " fill="#D3D4D5" transform="translate(52.51171875,117.8671875)"/>
<path d="M0 0 C1.17111328 -0.01224609 2.34222656 -0.02449219 3.54882812 -0.03710938 C4.66580078 -0.03904297 5.78277344 -0.04097656 6.93359375 -0.04296875 C7.96411865 -0.04707764 8.99464355 -0.05118652 10.05639648 -0.05541992 C12.5625 0.1875 12.5625 0.1875 14.5625 2.1875 C10.12226774 3.66757742 5.77574702 3.3718724 1.125 3.375 C0.17044922 3.38724609 -0.78410156 3.39949219 -1.76757812 3.41210938 C-2.68861328 3.41404297 -3.60964844 3.41597656 -4.55859375 3.41796875 C-5.81820923 3.42413208 -5.81820923 3.42413208 -7.10327148 3.43041992 C-9.62845831 3.16762723 -11.25720181 2.45523207 -13.4375 1.1875 C-10.84794843 -1.40205157 -3.48572397 0.00191208 0 0 Z " fill="#B8B9BB" transform="translate(63.4375,118.8125)"/>
<path d="M0 0 C3.875 0.875 3.875 0.875 5 2 C7.8116338 2.08861992 10.59858255 2.11522355 13.41015625 2.09765625 C14.67320839 2.09553383 14.67320839 2.09553383 15.96177673 2.09336853 C18.66205335 2.08775263 21.36224828 2.07519748 24.0625 2.0625 C25.88867068 2.05748705 27.71484266 2.05292379 29.54101562 2.04882812 C34.02737542 2.03777804 38.51367384 2.02050279 43 2 C43 1.34 43 0.68 43 0 C44.32 0 45.64 0 47 0 C47 0.66 47 1.32 47 2 C42.01014964 3.98784663 37.77414448 4.29364209 32.49609375 4.265625 C31.29473534 4.26849518 31.29473534 4.26849518 30.06910706 4.27142334 C28.38404016 4.27277842 26.69896258 4.26912952 25.01391602 4.26074219 C22.44198089 4.25001868 19.87074193 4.26066757 17.29882812 4.2734375 C15.65624847 4.27211606 14.01366924 4.26955399 12.37109375 4.265625 C11.60639267 4.26967346 10.84169159 4.27372192 10.05381775 4.27789307 C5.93064254 4.24184181 2.70948642 3.84535152 -1 2 C-0.67 1.34 -0.34 0.68 0 0 Z " fill="#DDDDDE" transform="translate(41,119)"/>
<path d="M0 0 C3.69900008 0.88776002 7.34550461 1.94581864 11 3 C11 3.33 11 3.66 11 4 C6.45194365 4.17835515 3.1205746 3.99785435 -1 2 C-0.67 1.34 -0.34 0.68 0 0 Z " fill="#E2E2E3" transform="translate(41,119)"/>
</svg>
